<svg width="128" height="77" viewBox="0 0 128 77" fill="none" xmlns="http://www.w3.org/2000/svg">
<path d="M5.55565 10.2318C5.51714 9.68101 5.64612 9.28564 5.9426 9.04562C6.23836 8.79521 6.74473 8.64494 7.46173 8.5948C7.72151 8.57664 7.94155 8.58736 8.12183 8.62696C8.31178 8.65545 8.47347 8.72768 8.60688 8.84365C8.75069 8.9589 8.86623 9.1179 8.9535 9.32064C9.05043 9.51226 9.13578 9.76212 9.20954 10.0702C9.40181 11.0279 9.60665 12.016 9.82407 13.0346C10.0519 14.0524 10.2852 15.0751 10.5242 16.1026C10.6192 16.5658 10.8797 16.7826 11.3058 16.7528C11.4201 16.7448 11.6064 16.7213 11.8647 16.6824C12.1327 16.6323 12.4475 16.579 12.809 16.5224C13.1698 16.4554 13.5566 16.3865 13.9693 16.3159C14.3924 16.2446 14.8107 16.1788 15.2242 16.1185C15.6474 16.0472 16.0452 15.988 16.4179 15.9411C16.8002 15.883 17.1368 15.8438 17.4278 15.8235C17.6564 15.8075 17.8415 15.8415 17.9831 15.9256C18.124 15.9993 18.2359 16.1063 18.3188 16.2467C18.4114 16.376 18.4743 16.5282 18.5074 16.7034C18.5502 16.8675 18.5778 17.0379 18.5901 17.2145C18.601 17.3704 18.5811 17.5336 18.5304 17.7043C18.4901 17.8742 18.4227 18.0303 18.3282 18.1726C18.2434 18.3039 18.1312 18.4161 17.9915 18.5094C17.8518 18.6027 17.6885 18.6559 17.5014 18.669C16.5974 18.7322 15.6851 18.8273 14.7647 18.9544C13.8539 19.0703 12.9445 19.2069 12.0366 19.3644C11.5734 19.4595 11.3559 19.7096 11.3843 20.1149C11.3864 20.146 11.3945 20.1872 11.4086 20.2385C11.4219 20.2793 11.4296 20.3153 11.4318 20.3465C11.6197 21.2418 11.7932 22.0807 11.9524 22.8632C12.1219 23.6449 12.2648 24.345 12.3812 24.9634C12.5072 25.5707 12.6055 26.0807 12.6761 26.4934C12.7564 26.895 12.8013 27.1634 12.8107 27.2985C12.8369 27.6726 12.8223 27.9869 12.767 28.2413C12.7124 28.5062 12.6075 28.7224 12.4521 28.8899C12.2975 29.0678 12.082 29.1977 11.8058 29.2797C11.5408 29.3713 11.2004 29.4316 10.7847 29.4607C10.3899 29.4883 10.0924 29.4151 9.89225 29.2412C9.69212 29.0672 9.56823 28.7887 9.52056 28.4057C9.37247 27.1839 9.18765 25.9594 8.96609 24.7323C8.74381 23.4948 8.50111 22.2639 8.23799 21.0397C8.11322 20.5994 7.86379 20.3924 7.48971 20.4185C7.45853 20.4207 7.42253 20.4284 7.38169 20.4417C7.34085 20.455 7.30484 20.4628 7.27367 20.465C6.63958 20.6555 6.04186 20.8435 5.48052 21.0289C4.91917 21.2144 4.39492 21.4077 3.90776 21.6088C3.63374 21.7219 3.38907 21.8069 3.17376 21.8637C2.95772 21.9102 2.76137 21.9396 2.58472 21.9519C2.34572 21.9686 2.1618 21.8771 2.03297 21.6772C1.9034 21.467 1.82736 21.2008 1.80483 20.8787C1.79684 20.7644 1.79815 20.6338 1.80876 20.4869C1.81864 20.3295 1.84967 20.176 1.90185 20.0261C1.9429 19.8666 2.01622 19.7205 2.12181 19.5878C2.21628 19.4455 2.35412 19.3262 2.53535 19.23C2.95944 19.0228 3.52863 18.8003 4.24294 18.5624C4.95653 18.3141 5.76472 18.0748 6.66753 17.8446C6.87172 17.7781 7.02698 17.6837 7.13329 17.5614C7.24926 17.428 7.2989 17.2418 7.28218 17.0028C7.27855 16.9509 7.27492 16.8989 7.27128 16.8469C7.26692 16.7846 7.25217 16.723 7.22703 16.6621C6.99392 15.7177 6.77218 14.8613 6.56181 14.0928C6.36111 13.3133 6.18399 12.6469 6.03045 12.0938C5.8873 11.5399 5.77329 11.1041 5.68841 10.7863C5.60354 10.4686 5.55929 10.2837 5.55565 10.2318ZM16.9096 12.4451C16.8311 11.3229 17.5193 10.7109 18.974 10.6092C19.2234 10.5917 19.4464 10.644 19.6429 10.766C19.8393 10.888 19.9615 11.0674 20.0094 11.3042C20.1473 11.9316 20.2744 12.5544 20.3907 13.1728C20.507 13.7912 20.6236 14.4879 20.7405 15.2629C20.867 16.0268 20.997 16.9157 21.1306 17.9297C21.2738 18.9325 21.436 20.1325 21.6172 21.5295C21.6274 21.675 21.6555 21.7774 21.7014 21.8369C21.7577 21.8956 21.817 21.9228 21.8794 21.9184C21.9729 21.9119 22.0599 21.8118 22.1403 21.6182C22.4391 20.8142 22.7853 20.0903 23.1789 19.4467C23.5717 18.7927 24.0026 18.2353 24.4716 17.7744C24.9399 17.3031 25.4418 16.939 25.9772 16.6823C26.5224 16.4145 27.0859 16.2602 27.6678 16.2195C28.4368 16.1657 29.1483 16.3353 29.8023 16.7281C30.4562 17.1209 31.0294 17.7022 31.5218 18.4718C32.0142 19.2414 32.4199 20.1893 32.7388 21.3157C33.057 22.4316 33.2651 23.691 33.3632 25.0938C33.3901 25.4783 33.3811 25.7974 33.3362 26.0512C33.301 26.2938 33.2209 26.4926 33.096 26.6475C32.9711 26.8024 32.7909 26.9142 32.5555 26.9829C32.3209 27.0619 32.0269 27.1138 31.6736 27.1385C31.1852 27.1727 30.8254 27.1039 30.5941 26.9321C30.3732 26.7596 30.2489 26.4759 30.2213 26.081C30.153 25.1042 30.0212 24.1893 29.8258 23.3363C29.64 22.4722 29.41 21.7207 29.1356 21.0821C28.8612 20.4434 28.5547 19.9427 28.2161 19.5801C27.8878 19.2167 27.5471 19.0473 27.1938 19.072C26.3936 19.128 25.6389 19.8334 24.9296 21.1882C24.2307 22.5424 23.5416 24.5589 22.8622 27.2378C22.7958 27.4826 22.7161 27.6866 22.6231 27.8497C22.5301 28.0129 22.4141 28.1463 22.2751 28.25C22.1466 28.3529 21.9847 28.4269 21.7894 28.4719C21.5949 28.5273 21.3626 28.5644 21.0924 28.5833C20.5416 28.6218 20.1395 28.5455 19.886 28.3544C19.6428 28.1625 19.4942 27.8284 19.44 27.3518C19.2512 25.5481 19.0163 23.8311 18.7352 22.2009C18.4638 20.5596 18.1932 19.0801 17.9236 17.7624C17.6636 16.4335 17.4337 15.3114 17.234 14.396C17.0439 13.4695 16.9357 12.8192 16.9096 12.4451ZM36.7676 10.1637C36.4662 10.1848 36.1775 10.1632 35.9016 10.099C35.6352 10.0236 35.3979 9.91492 35.1896 9.77285C34.9909 9.61967 34.8268 9.43797 34.6972 9.22774C34.5677 9.01752 34.4938 8.78252 34.4756 8.52273C34.4451 8.0863 34.5919 7.72101 34.9159 7.42685C35.2503 7.13197 35.7085 6.96419 36.2904 6.9235C36.5605 6.90461 36.824 6.9384 37.0806 7.02487C37.3365 7.10095 37.5638 7.21558 37.7625 7.36877C37.9716 7.52122 38.1413 7.70776 38.2715 7.92837C38.4011 8.1386 38.4742 8.36321 38.491 8.60221C38.5222 9.04903 38.3806 9.41396 38.0663 9.697C37.7616 9.96891 37.3287 10.1245 36.7676 10.1637ZM34.9646 15.0671C34.9392 14.7034 35.0743 14.3963 35.3701 14.1459C35.6755 13.8844 36.088 13.7355 36.6075 13.6991C37.5428 13.6337 38.0641 13.921 38.1715 14.5609C38.2443 15.0048 38.3211 15.5059 38.4019 16.0641C38.4931 16.6216 38.5816 17.2158 38.6675 17.8468C38.7631 18.4666 38.85 19.1132 38.9284 19.7864C39.0165 20.4486 39.099 21.1059 39.176 21.7583C39.2522 22.4004 39.3218 23.0221 39.3847 23.6233C39.4476 24.2246 39.4965 24.7746 39.5314 25.2734C39.5677 25.7929 39.408 26.1957 39.052 26.4816C38.7065 26.7668 38.1804 26.9341 37.4738 26.9836C37.1517 27.0061 36.8917 26.946 36.6937 26.8032C36.5069 26.67 36.4033 26.458 36.383 26.167C36.2827 24.733 36.1526 23.3951 35.9926 22.1532C35.8424 20.9003 35.6915 19.7883 35.5401 18.8173C35.399 17.8456 35.2696 17.0402 35.1518 16.401C35.0437 15.7507 34.9813 15.3061 34.9646 15.0671ZM45.3969 11.9411C46.0932 11.8924 46.8167 11.9358 47.5676 12.0713C48.3177 12.1963 49.0095 12.3829 49.6429 12.631C50.2756 12.8687 50.8018 13.1504 51.2213 13.4761C51.6409 13.8017 51.8623 14.1309 51.8856 14.4634C51.8972 14.6296 51.8375 14.8218 51.7066 15.0398C51.5749 15.2474 51.4117 15.452 51.217 15.6535C51.0215 15.8447 50.8034 16.0114 50.5627 16.1535C50.3317 16.2845 50.1227 16.3566 49.9357 16.3697C49.6863 16.3871 49.3984 16.3028 49.0722 16.1168C48.7563 15.93 48.4026 15.725 48.0111 15.5018C47.6292 15.2674 47.2128 15.0616 46.7618 14.8843C46.3109 14.707 45.8308 14.6362 45.3216 14.6718C44.9891 14.695 44.7195 14.7974 44.5129 14.9789C44.316 15.1493 44.2277 15.38 44.2481 15.671C44.2662 15.9307 44.4095 16.187 44.6777 16.4397C44.9453 16.6821 45.2915 16.9294 45.7164 17.1816C46.1517 17.4331 46.64 17.6965 47.1814 17.9719C47.7227 18.2474 48.2759 18.5428 48.841 18.8583C49.4164 19.1731 49.9785 19.5202 50.5271 19.8995C51.0757 20.2788 51.5697 20.6985 52.0091 21.1586C52.459 21.6179 52.8289 22.1298 53.119 22.6943C53.4083 23.2483 53.5766 23.8631 53.6239 24.5385C53.6645 25.1204 53.5977 25.6577 53.4233 26.1502C53.2489 26.6427 52.9814 27.0739 52.6209 27.4437C52.2604 27.8135 51.8218 28.1104 51.3049 28.3345C50.788 28.5586 50.2126 28.6929 49.5788 28.7372C48.7786 28.7931 48.0321 28.72 47.3393 28.5179C46.6471 28.3261 46.0419 28.0343 45.5238 27.6424C45.0056 27.2505 44.5855 26.7682 44.2635 26.1955C43.9519 25.6221 43.7714 24.9821 43.722 24.2755C43.6581 23.3611 43.7726 22.6847 44.0657 22.2466C44.3692 21.8077 44.8742 21.5635 45.5808 21.5141C46.0172 21.4836 46.3711 21.5424 46.6426 21.6905C46.914 21.8386 47.058 22.0321 47.0747 22.2711C47.0835 22.3958 47.0718 22.5271 47.0396 22.6651C47.0068 22.7927 46.9695 22.9311 46.9277 23.0802C46.8956 23.2182 46.8642 23.3666 46.8335 23.5254C46.8132 23.6834 46.8086 23.8404 46.8195 23.9962C46.8383 24.2664 46.9189 24.5218 47.061 24.7625C47.2031 25.0032 47.3846 25.2098 47.6056 25.3823C47.8376 25.5645 48.0979 25.7029 48.3864 25.7976C48.675 25.8923 48.9751 25.9287 49.2869 25.9069C50.1182 25.8488 50.5098 25.4768 50.4619 24.791C50.4241 24.2506 50.1755 23.7563 49.716 23.3081C49.2558 22.8495 48.6876 22.4142 48.0114 22.002C47.3344 21.5794 46.6055 21.1605 45.8246 20.7452C45.0541 20.3292 44.329 19.8891 43.6491 19.425C42.9692 18.9609 42.3963 18.458 41.9303 17.9162C41.4636 17.3641 41.2066 16.7503 41.1594 16.0749C41.1201 15.5138 41.1985 14.9914 41.3944 14.5078C41.6007 14.0235 41.8948 13.6009 42.2768 13.24C42.6581 12.8688 43.1124 12.5708 43.6396 12.3459C44.1773 12.1204 44.7631 11.9854 45.3969 11.9411ZM63.016 8.32826C62.7146 8.34933 62.426 8.32775 62.15 8.26351C61.8836 8.18816 61.6463 8.07945 61.438 7.93738C61.2393 7.7842 61.0752 7.6025 60.9456 7.39228C60.8161 7.18205 60.7422 6.94705 60.724 6.68727C60.6935 6.25083 60.8403 5.88554 61.1643 5.59139C61.4987 5.29651 61.9569 5.12872 62.5388 5.08803C62.8089 5.06914 63.0724 5.10293 63.329 5.1894C63.585 5.26549 63.8123 5.38012 64.0109 5.5333C64.22 5.68575 64.3897 5.87229 64.5199 6.0929C64.6495 6.30313 64.7226 6.52774 64.7394 6.76674C64.7706 7.21357 64.6291 7.5785 64.3147 7.86153C64.01 8.13345 63.5771 8.28902 63.016 8.32826ZM61.213 13.2316C61.1876 12.8679 61.3227 12.5609 61.6185 12.3104C61.9239 12.0489 62.3364 11.9 62.8559 11.8637C63.7912 11.7983 64.3125 12.0855 64.4199 12.7254C64.4927 13.1693 64.5695 13.6704 64.6503 14.2286C64.7415 14.7861 64.83 15.3804 64.9159 16.0113C65.0115 16.6312 65.0984 17.2777 65.1768 17.951C65.2649 18.6131 65.3474 19.2704 65.4244 19.9229C65.5006 20.565 65.5702 21.1866 65.6331 21.7879C65.696 22.3891 65.7449 22.9391 65.7798 23.4379C65.8161 23.9575 65.6564 24.3602 65.3004 24.6462C64.9549 24.9314 64.4288 25.0987 63.7222 25.1481C63.4001 25.1706 63.1401 25.1105 62.9421 24.9677C62.7553 24.8346 62.6517 24.6225 62.6314 24.3316C62.5311 22.8976 62.401 21.5596 62.241 20.3178C62.0908 19.0648 61.9399 17.9528 61.7885 16.9818C61.6475 16.0101 61.518 15.2047 61.4002 14.5655C61.2921 13.9152 61.2297 13.4706 61.213 13.2316ZM71.6453 10.1056C72.3416 10.057 73.0651 10.1003 73.816 10.2358C74.5661 10.3609 75.2579 10.5474 75.8913 10.7955C76.524 11.0332 77.0502 11.3149 77.4697 11.6406C77.8893 11.9663 78.1107 12.2954 78.134 12.6279C78.1456 12.7942 78.0859 12.9863 77.955 13.2043C77.8233 13.4119 77.6601 13.6165 77.4654 13.8181C77.2699 14.0093 77.0518 14.1759 76.8111 14.318C76.5801 14.4491 76.3711 14.5211 76.1841 14.5342C75.9347 14.5516 75.6468 14.4673 75.3206 14.2813C75.0047 14.0946 74.651 13.8896 74.2595 13.6663C73.8776 13.432 73.4612 13.2262 73.0102 13.0488C72.5593 12.8715 72.0792 12.8007 71.57 12.8363C71.2375 12.8595 70.9679 12.9619 70.7613 13.1435C70.5644 13.3139 70.4761 13.5445 70.4965 13.8355C70.5146 14.0953 70.6579 14.3515 70.9262 14.6043C71.1937 14.8466 71.5399 15.0939 71.9648 15.3461C72.4001 15.5976 72.8884 15.8611 73.4298 16.1365C73.9711 16.4119 74.5243 16.7073 75.0894 17.0229C75.6648 17.3377 76.2269 17.6847 76.7755 18.064C77.3241 18.4434 77.8181 18.863 78.2576 19.3231C78.7074 19.7824 79.0773 20.2943 79.3674 20.8588C79.6567 21.4129 79.825 22.0276 79.8723 22.7031C79.913 23.285 79.8461 23.8222 79.6717 24.3147C79.4973 24.8073 79.2298 25.2384 78.8693 25.6082C78.5088 25.978 78.0702 26.275 77.5533 26.4991C77.0364 26.7232 76.461 26.8574 75.8272 26.9017C75.027 26.9577 74.2805 26.8846 73.5877 26.6824C72.8955 26.4906 72.2904 26.1988 71.7722 25.8069C71.254 25.415 70.8339 24.9327 70.5119 24.36C70.2003 23.7866 70.0198 23.1466 69.9704 22.44C69.9065 21.5256 70.021 20.8493 70.3141 20.4111C70.6176 19.9722 71.1226 19.728 71.8292 19.6786C72.2656 19.6481 72.6196 19.7069 72.891 19.855C73.1624 20.0031 73.3064 20.1966 73.3231 20.4356C73.3319 20.5603 73.3202 20.6917 73.288 20.8297C73.2552 20.9573 73.2179 21.0956 73.1761 21.2447C73.144 21.3827 73.1126 21.5311 73.0819 21.6899C73.0616 21.8479 73.057 22.0049 73.0679 22.1608C73.0868 22.4309 73.1673 22.6864 73.3094 22.927C73.4515 23.1677 73.6331 23.3743 73.854 23.5468C74.086 23.729 74.3463 23.8674 74.6348 23.9621C74.9234 24.0568 75.2235 24.0932 75.5353 24.0714C76.3666 24.0133 76.7583 23.6413 76.7103 22.9555C76.6725 22.4152 76.4239 21.9209 75.9644 21.4727C75.5042 21.0141 74.936 20.5787 74.2598 20.1665C73.5828 19.744 72.8539 19.325 72.073 18.9097C71.3025 18.4937 70.5774 18.0537 69.8975 17.5895C69.2176 17.1254 68.6447 16.6225 68.1787 16.0808C67.712 15.5286 67.455 14.9149 67.4078 14.2394C67.3685 13.6783 67.4469 13.1559 67.6428 12.6723C67.8491 12.188 68.1432 11.7654 68.5252 11.4046C68.9065 11.0333 69.3608 10.7353 69.8881 10.5105C70.4257 10.2849 71.0115 10.15 71.6453 10.1056ZM89.4722 23.1282C89.3028 21.7512 89.0943 20.4867 88.8466 19.3345C88.6087 18.1711 88.3708 17.1592 88.1331 16.2987C87.9058 15.4375 87.7058 14.7414 87.5329 14.2105C87.3704 13.6789 87.2844 13.3455 87.275 13.2104C87.2612 13.013 87.3205 12.8157 87.4529 12.6185C87.5957 12.4205 87.7767 12.246 87.9958 12.0949C88.2142 11.9335 88.4505 11.8021 88.7044 11.7008C88.9688 11.5988 89.2101 11.5401 89.4283 11.5249C89.6049 11.5125 89.7578 11.5332 89.8868 11.5868C90.0263 11.6397 90.1271 11.7371 90.1892 11.8789C90.2535 12.0519 90.3134 12.2357 90.3687 12.4302C90.4338 12.6136 90.5017 12.8386 90.5726 13.1051C90.6618 13.4853 90.7584 13.6717 90.8623 13.6644C90.9766 13.6564 91.0945 13.4759 91.216 13.1228C91.3904 12.6303 91.5862 12.2198 91.8034 11.8913C92.0206 11.5629 92.2581 11.3009 92.5159 11.1053C92.7834 10.8987 93.0601 10.7488 93.346 10.6557C93.6422 10.5619 93.9514 10.5037 94.2735 10.4812C95.2503 10.4129 96.1033 10.7396 96.8325 11.4613C97.5721 12.1823 98.185 13.2568 98.6712 14.6847C98.7348 14.8473 98.7892 14.9532 98.8344 15.0022C98.8789 15.0409 98.9271 15.0584 98.979 15.0547C99.031 15.0511 99.0815 15.0267 99.1305 14.9815C99.1893 14.9252 99.2395 14.8225 99.2813 14.6734C99.4835 13.9805 99.7344 13.3886 100.034 12.8978C100.333 12.3965 100.649 11.988 100.982 11.6724C101.325 11.3456 101.679 11.1016 102.043 10.9403C102.408 10.7791 102.762 10.6865 103.105 10.6625C103.738 10.6182 104.326 10.812 104.868 11.244C105.42 11.6649 105.927 12.3447 106.389 13.2835C106.861 14.2112 107.294 15.4026 107.689 16.8578C108.092 18.3019 108.463 20.025 108.802 22.0271C108.841 22.5883 108.697 22.9899 108.369 23.2321C108.042 23.4847 107.583 23.6317 106.99 23.6731C106.606 23.7 106.299 23.638 106.069 23.487C105.839 23.336 105.699 23.1265 105.649 22.8585C105.413 21.4235 105.173 20.1507 104.928 19.0401C104.693 17.9184 104.455 16.9795 104.214 16.2237C103.972 15.4574 103.723 14.8796 103.466 14.4904C103.22 14.1004 102.961 13.9148 102.691 13.9337C102.556 13.9431 102.391 14.0538 102.197 14.2658C102.014 14.4771 101.826 14.8556 101.635 15.4016C101.442 15.9371 101.254 16.6708 101.068 17.6027C100.882 18.5242 100.724 19.6995 100.594 21.1287C100.559 21.528 100.388 21.8428 100.081 22.0731C99.7835 22.3027 99.4063 22.4335 98.949 22.4655C98.4191 22.5026 98.0444 22.4452 97.8249 22.2935C97.6159 22.1411 97.4871 21.8681 97.4387 21.4747C97.3492 20.7918 97.2289 20.1162 97.0777 19.4481C96.9363 18.7688 96.7713 18.1277 96.583 17.5248C96.3939 16.9115 96.1929 16.3512 95.9799 15.844C95.7662 15.3264 95.5472 14.8823 95.3229 14.5116C95.0978 14.1305 94.8738 13.8381 94.6507 13.6345C94.4276 13.4308 94.2173 13.3358 94.0199 13.3496C93.7601 13.3678 93.5182 13.5675 93.2943 13.9486C93.0807 14.329 92.8985 14.8586 92.7475 15.5375C92.607 16.2156 92.5123 17.0263 92.4634 17.9695C92.4145 18.9127 92.4303 19.961 92.511 21.1144C92.5248 21.3119 92.5438 21.5089 92.568 21.7057C92.5915 21.892 92.6105 22.089 92.625 22.2969C92.6468 22.6086 92.6126 22.8668 92.5225 23.0715C92.4428 23.2755 92.3134 23.4412 92.1344 23.5686C91.9657 23.6952 91.7633 23.7877 91.5273 23.846C91.2912 23.9042 91.0328 23.9432 90.7523 23.9628C90.4925 23.981 90.2832 23.9747 90.1244 23.9441C89.9664 23.9238 89.8432 23.8802 89.755 23.8133C89.6668 23.7463 89.6028 23.6516 89.5629 23.5291C89.5237 23.417 89.4935 23.2833 89.4722 23.1282ZM117.231 20.9365C116.607 20.9801 115.973 20.873 115.329 20.6153C114.683 20.3472 114.056 19.9681 113.448 19.4781C112.839 18.9881 112.266 18.4017 111.727 17.7188C111.188 17.0256 110.707 16.276 110.286 15.4702C109.863 14.6539 109.516 13.7958 109.244 12.8959C108.972 11.996 108.804 11.0889 108.741 10.1744C108.691 9.46782 108.801 8.95367 109.071 8.63198C109.34 8.29989 109.802 8.11096 110.457 8.06518C111.278 8.00778 111.759 8.31352 111.899 8.98242C112.187 10.4033 112.537 11.6789 112.95 12.8091C113.363 13.9392 113.822 14.894 114.325 15.6733C114.839 16.4518 115.387 17.04 115.968 17.438C116.56 17.8352 117.167 18.012 117.791 17.9684C118.237 17.9371 118.651 17.7986 119.03 17.5527C119.409 17.2965 119.73 16.9556 119.993 16.53C120.086 16.3669 120.143 16.2115 120.164 16.0638C120.195 15.9154 120.214 15.747 120.222 15.5585C120.223 14.8171 120.229 14.0909 120.242 13.3799C120.265 12.6578 120.282 11.9361 120.294 11.2148C120.293 10.9016 120.317 10.6441 120.366 10.4423C120.414 10.2405 120.497 10.0781 120.613 9.95505C120.73 9.83203 120.886 9.74283 121.08 9.68746C121.285 9.63136 121.544 9.59241 121.855 9.57061C122.209 9.54591 122.514 9.57679 122.77 9.66326C123.026 9.73935 123.24 9.88624 123.412 10.104C123.583 10.3113 123.713 10.5946 123.8 10.9539C123.898 11.3021 123.965 11.7412 124.002 12.2712C124.034 12.7284 124.026 13.131 123.977 13.479C123.938 13.8159 123.882 14.1383 123.81 14.4462C123.747 14.7429 123.684 15.0397 123.621 15.3365C123.568 15.6221 123.543 15.9371 123.546 16.2815C123.555 17.1476 123.56 17.8991 123.563 18.5358C123.565 19.1622 123.566 19.6999 123.566 20.1489C123.577 20.5972 123.583 20.9831 123.584 21.3067C123.597 21.6296 123.606 21.9161 123.613 22.1662C123.621 22.4267 123.633 22.6712 123.649 22.8998C123.665 23.1285 123.682 23.3778 123.701 23.648C123.735 24.1364 123.793 24.6649 123.875 25.2335C123.957 25.8125 124.037 26.3656 124.116 26.8926C124.205 27.4189 124.285 27.8833 124.354 28.2856C124.424 28.688 124.465 28.9671 124.476 29.123C124.489 29.3204 124.44 29.5118 124.328 29.6972C124.215 29.8825 124.06 30.05 123.862 30.1997C123.663 30.3493 123.426 30.4703 123.151 30.5626C122.876 30.6654 122.583 30.7276 122.271 30.7494C122.001 30.7683 121.776 30.6901 121.597 30.5147C121.429 30.3489 121.324 30.1161 121.282 29.8162C121.223 29.4235 121.163 28.9421 121.103 28.372C121.042 27.8124 120.98 27.2111 120.914 26.5683C120.849 25.9359 120.788 25.2875 120.731 24.6232C120.685 23.9686 120.637 23.3559 120.587 22.7851C120.537 22.2247 120.497 21.7314 120.467 21.3054C120.438 20.8793 120.416 20.5728 120.403 20.3858C120.39 20.1987 120.36 20.0703 120.313 20.0004C120.266 19.9202 120.185 19.8841 120.071 19.8921C120.009 19.8965 119.927 19.9231 119.826 19.9719C119.724 20.0103 119.609 20.0758 119.479 20.1684C119.131 20.4121 118.773 20.5937 118.405 20.7134C118.038 20.8331 117.646 20.9075 117.231 20.9365ZM9.48385 55.2079C9.45551 54.8027 9.61592 54.4834 9.96509 54.2501C10.3135 54.0065 10.8255 53.8611 11.5009 53.8138C11.6568 53.8029 11.7985 53.8139 11.9261 53.8467C12.0537 53.8796 12.1686 53.9551 12.2709 54.0732C12.3828 54.1803 12.4876 54.3348 12.5852 54.5368C12.6829 54.7388 12.7845 54.998 12.8902 55.3143C12.9988 55.6722 13.0946 55.8482 13.1777 55.8424C13.2505 55.8373 13.3283 55.6805 13.4111 55.3719C13.5567 54.7665 13.765 54.235 14.0358 53.7775C14.3163 53.3089 14.6386 52.9157 15.0027 52.5978C15.3661 52.2696 15.7662 52.0171 16.2028 51.8404C16.6499 51.6629 17.1228 51.5568 17.6215 51.5219C18.6295 51.4514 19.5834 51.5779 20.4831 51.9013C21.3821 52.2144 22.1722 52.6865 22.8533 53.3176C23.5337 53.9383 24.0877 54.6932 24.5153 55.5822C24.9422 56.4608 25.1927 57.43 25.2669 58.4899C25.3453 59.6122 25.2206 60.6651 24.8925 61.6488C24.5749 62.6316 24.0923 63.4955 23.4448 64.2404C22.7965 64.9749 22.0027 65.5682 21.0632 66.0203C20.1348 66.482 19.0991 66.7528 17.956 66.8327L17.1589 66.8572C16.6913 66.8899 16.476 67.1712 16.5131 67.7011L17.8083 74.8C17.8103 74.9773 17.7592 75.1428 17.655 75.2962C17.562 75.4594 17.426 75.6046 17.2469 75.732C17.0783 75.8587 16.8714 75.9619 16.6264 76.0417C16.3918 76.1207 16.1446 76.1694 15.8848 76.1875C15.1366 76.2398 14.7143 76.024 14.6178 75.5399C14.2673 73.664 13.8974 71.8834 13.5081 70.1981C13.1291 68.5121 12.7481 66.9463 12.3651 65.5008C11.9918 64.0441 11.633 62.7221 11.289 61.5349C10.9449 60.3477 10.6377 59.3145 10.3674 58.4354C10.1075 57.5556 9.90073 56.8391 9.74719 56.2859C9.58326 55.7335 9.49548 55.3742 9.48385 55.2079ZM14.8373 58.9686C14.8846 59.6441 14.9574 60.3125 15.0559 60.9739C15.1536 61.6249 15.2865 62.3309 15.4546 63.0919C15.5496 63.5551 15.8228 63.8023 16.2739 63.8334C16.5485 63.8769 16.8542 63.9181 17.1911 63.9572C17.5376 63.9852 17.8252 63.9912 18.0538 63.9752C18.7188 63.9287 19.3146 63.7878 19.8412 63.5526C20.3677 63.3174 20.8105 63.0045 21.1696 62.6139C21.5279 62.213 21.7931 61.7506 21.9654 61.2269C22.1376 60.7032 22.2019 60.1296 22.1583 59.5061C22.1053 58.7476 21.9519 58.0482 21.6983 57.4081C21.444 56.7576 21.1179 56.2009 20.7201 55.7379C20.3326 55.2742 19.8849 54.9192 19.3769 54.6728C18.8792 54.4256 18.3499 54.3217 17.7887 54.3609C17.3004 54.3951 16.8612 54.5354 16.4712 54.782C16.0908 55.0174 15.7686 55.3375 15.5045 55.7424C15.2501 56.1361 15.0639 56.6085 14.9458 57.1598C14.8277 57.711 14.7916 58.314 14.8373 58.9686ZM27.309 59.6942C27.2966 59.5175 27.3036 59.3186 27.3299 59.0975C27.3562 58.8764 27.3603 58.6359 27.3421 58.3762C27.3298 58.1995 27.2424 58.0699 27.08 57.9872C26.9279 57.9039 26.7544 57.8116 26.5594 57.7104C26.3643 57.6092 26.1827 57.4757 26.0145 57.3099C25.8567 57.1434 25.7661 56.8939 25.7429 56.5614C25.7262 56.3224 25.7718 56.0791 25.8798 55.8313C25.9982 55.5829 26.1751 55.3512 26.4107 55.1364C26.9918 54.6363 27.597 54.1815 28.2262 53.772C28.8658 53.3618 29.5042 53.0091 30.1415 52.714C30.7891 52.4181 31.4303 52.1801 32.0651 51.9999C32.6999 51.8198 33.3134 51.709 33.9058 51.6676C34.9033 51.5978 35.8516 51.7195 36.7506 52.0325C37.6593 52.3345 38.4583 52.785 39.1476 53.3842C39.8466 53.9723 40.4133 54.6845 40.8477 55.5208C41.2918 56.346 41.5479 57.247 41.6163 58.2238C41.6831 59.1798 41.5441 60.1032 41.1991 60.994C40.8638 61.8737 40.381 62.6593 39.7506 63.3508C39.1202 64.0423 38.3609 64.6071 37.4726 65.0451C36.5955 65.4928 35.6529 65.7519 34.6449 65.8224C33.6578 65.8914 32.7317 65.7891 31.8668 65.5154C31.0018 65.2418 30.2425 64.8354 29.5887 64.2964C28.9342 63.7469 28.4075 63.0841 28.0086 62.308C27.609 61.5214 27.3758 60.6502 27.309 59.6942ZM34.7917 62.9927C35.2281 62.9622 35.6739 62.8423 36.1292 62.6329C36.5845 62.4236 36.9927 62.1392 37.3539 61.7798C37.7248 61.4093 38.0179 60.9711 38.2331 60.4653C38.4587 59.9587 38.5501 59.3989 38.5073 58.7858C38.4637 58.1623 38.3087 57.5884 38.0423 57.0641C37.7759 56.5397 37.4262 56.0942 36.9934 55.7277C36.5702 55.3501 36.0752 55.0662 35.5085 54.8761C34.9521 54.6853 34.357 54.612 33.7232 54.6564C32.5697 54.737 31.7075 55.1001 31.1366 55.7457C30.5649 56.3809 30.3223 57.3167 30.4088 58.5533C30.456 59.2287 30.5987 59.8505 30.8368 60.4186C31.0846 60.9756 31.4053 61.4544 31.7988 61.855C32.1915 62.2452 32.6405 62.5428 33.1456 62.7476C33.661 62.9517 34.2098 63.0334 34.7917 62.9927ZM51.6855 51.4737C51.3011 51.5006 50.9706 51.6281 50.6942 51.8563C50.417 52.0741 50.1873 52.3721 50.0049 52.7503C49.8218 53.1182 49.6797 53.551 49.5788 54.0488C49.4771 54.5363 49.4047 55.0687 49.3615 55.646C49.3184 56.2233 49.303 56.8248 49.3154 57.4505C49.3279 58.0762 49.3562 58.7059 49.4006 59.3398C49.4587 60.1711 49.5473 60.9898 49.6663 61.796C49.795 62.591 49.8833 63.3315 49.9313 64.0173C49.9625 64.4641 49.8206 64.8238 49.5055 65.0965C49.1912 65.3795 48.7274 65.5425 48.1143 65.5853C48 65.5933 47.8694 65.592 47.7225 65.5814C47.5756 65.5708 47.4324 65.5391 47.2929 65.4862C47.1639 65.4325 47.0434 65.3522 46.9315 65.2452C46.8307 65.1478 46.7686 65.0059 46.7451 64.8196C46.5876 63.9117 46.3871 62.986 46.1436 62.0423C45.9001 61.0987 45.6102 60.1635 45.2739 59.2368C44.9473 58.2989 44.5643 57.3755 44.1248 56.4664C43.6957 55.5566 43.2109 54.6716 42.6704 53.8114C42.5764 53.6614 42.4935 53.521 42.4217 53.3902C42.3603 53.2588 42.3252 53.1307 42.3165 53.006C42.3056 52.8501 42.3615 52.6792 42.4842 52.4931C42.6166 52.2958 42.7813 52.112 42.9782 51.9416C43.1855 51.7705 43.4106 51.6295 43.6535 51.5185C43.906 51.3964 44.1517 51.327 44.3907 51.3103C44.7856 51.2827 45.153 51.5337 45.4928 52.0634C45.832 52.5827 46.1732 53.4307 46.5166 54.6076C46.583 54.8118 46.6348 54.9543 46.6718 55.0353C46.7088 55.1162 46.7532 55.1549 46.8052 55.1513C46.9195 55.1433 46.9799 54.9615 46.9863 54.606C47.042 53.6101 47.1958 52.7484 47.4477 52.0207C47.699 51.2826 48.032 50.6693 48.4468 50.1809C48.8714 49.6813 49.3669 49.3021 49.9336 49.0431C50.5106 48.7835 51.1525 48.629 51.8591 48.5796C52.2643 48.5512 52.6773 48.5589 53.0981 48.6026C53.5188 48.6463 53.9005 48.7292 54.2432 48.8514C54.5859 48.9737 54.8684 49.1314 55.0908 49.3247C55.3132 49.518 55.4334 49.7445 55.4516 50.0043C55.4647 50.1914 55.4387 50.4177 55.3738 50.6833C55.3185 50.9378 55.2368 51.1889 55.1288 51.4366C55.0201 51.6739 54.8885 51.8815 54.7338 52.0594C54.5889 52.2262 54.4332 52.3154 54.267 52.327C54.0799 52.3401 53.8945 52.3008 53.7105 52.2093C53.5259 52.1073 53.3253 52.0013 53.1087 51.8911C52.9026 51.7802 52.6816 51.6808 52.4457 51.5929C52.2195 51.4938 51.9661 51.4541 51.6855 51.4737ZM55.5595 44.8279C55.521 44.2772 55.65 43.8818 55.9465 43.6418C56.2422 43.3914 56.7486 43.2411 57.4656 43.191C57.7254 43.1728 57.9454 43.1835 58.1257 43.2231C58.3156 43.2516 58.4773 43.3239 58.6107 43.4398C58.7546 43.5551 58.8701 43.7141 58.9574 43.9168C59.0543 44.1084 59.1396 44.3583 59.2134 44.6664C59.4057 45.6241 59.6105 46.6122 59.8279 47.6308C60.0557 48.6486 60.2891 49.6713 60.528 50.6988C60.6231 51.162 60.8836 51.3787 61.3097 51.349C61.424 51.341 61.6103 51.3175 61.8686 51.2785C62.1366 51.2285 62.4514 51.1751 62.8129 51.1185C63.1737 51.0515 63.5604 50.9827 63.9732 50.9121C64.3963 50.8407 64.8146 50.7749 65.2281 50.7147C65.6512 50.6433 66.0491 50.5842 66.4217 50.5373C66.804 50.4792 67.1407 50.44 67.4316 50.4196C67.6602 50.4037 67.8453 50.4377 67.987 50.5218C68.1279 50.5955 68.2398 50.7025 68.3227 50.8429C68.4153 50.9722 68.4781 51.1244 68.5113 51.2996C68.5541 51.4637 68.5816 51.6341 68.594 51.8107C68.6049 51.9666 68.585 52.1298 68.5343 52.3004C68.4939 52.4703 68.4265 52.6265 68.3321 52.7688C68.2473 52.9 68.135 53.0123 67.9954 53.1056C67.8557 53.1989 67.6923 53.2521 67.5053 53.2652C66.6012 53.3284 65.689 53.4235 64.7685 53.5505C63.8577 53.6664 62.9484 53.8031 62.0405 53.9606C61.5772 54.0556 61.3598 54.3058 61.3881 54.711C61.3903 54.7422 61.3984 54.7834 61.4124 54.8347C61.4257 54.8755 61.4335 54.9115 61.4356 54.9427C61.6236 55.838 61.7971 56.6769 61.9562 57.4594C62.1257 58.2411 62.2687 58.9412 62.385 59.5596C62.511 60.1668 62.6093 60.6769 62.68 61.0896C62.7603 61.4912 62.8051 61.7596 62.8146 61.8947C62.8407 62.2688 62.8262 62.583 62.7709 62.8375C62.7163 63.1024 62.6113 63.3186 62.456 63.4861C62.3013 63.6639 62.0859 63.7939 61.8097 63.8758C61.5446 63.9675 61.2042 64.0278 60.7886 64.0569C60.3937 64.0845 60.0962 64.0113 59.8961 63.8374C59.696 63.6634 59.5721 63.3849 59.5244 63.0019C59.3763 61.7801 59.1915 60.5556 58.97 59.3285C58.7477 58.091 58.505 56.8601 58.2418 55.6359C58.1171 55.1956 57.8677 54.9886 57.4936 55.0147C57.4624 55.0169 57.4264 55.0246 57.3856 55.0379C57.3447 55.0512 57.3087 55.059 57.2775 55.0611C56.6434 55.2517 56.0457 55.4397 55.4844 55.6251C54.923 55.8105 54.3988 56.0038 53.9116 56.205C53.6376 56.3181 53.3929 56.4031 53.1776 56.4599C52.9616 56.5064 52.7652 56.5357 52.5886 56.5481C52.3496 56.5648 52.1657 56.4733 52.0368 56.2734C51.9073 56.0632 51.8312 55.797 51.8087 55.4749C51.8007 55.3606 51.802 55.23 51.8126 55.083C51.8225 54.9257 51.8535 54.7721 51.9057 54.6223C51.9468 54.4628 52.0201 54.3167 52.1257 54.184C52.2201 54.0417 52.358 53.9224 52.5392 53.8262C52.9633 53.619 53.5325 53.3965 54.2468 53.1585C54.9604 52.9102 55.7686 52.671 56.6714 52.4408C56.8756 52.3743 57.0308 52.2799 57.1372 52.1576C57.2531 52.0242 57.3028 51.838 57.286 51.599C57.2824 51.547 57.2788 51.4951 57.2751 51.4431C57.2708 51.3808 57.256 51.3192 57.2309 51.2583C56.9978 50.3139 56.776 49.4575 56.5657 48.689C56.365 47.9095 56.1879 47.2431 56.0343 46.69C55.8912 46.1361 55.7771 45.7003 55.6923 45.3825C55.6074 45.0648 55.5631 44.8799 55.5595 44.8279ZM66.474 53.5253C66.2336 53.5212 66.0305 53.3788 65.8646 53.098C65.6988 52.8172 65.6035 52.5002 65.5788 52.1468C65.5672 51.9806 65.5715 51.8184 65.5918 51.6604C65.601 51.4927 65.6324 51.3443 65.686 51.2152C65.7396 51.0862 65.8106 50.982 65.8991 50.9027C65.9868 50.8131 66.093 50.7639 66.2177 50.7551C66.6022 50.7283 67.0431 50.687 67.5404 50.6313C68.037 50.5653 68.57 50.4967 69.1393 50.4255C69.4281 50.374 69.5772 50.1913 69.5865 49.8774C69.5747 48.3641 69.6138 47.0561 69.7037 45.9534C69.7937 44.8507 69.932 43.9169 70.1187 43.152C70.3047 42.3767 70.532 41.7447 70.8006 41.2561C71.0796 40.7667 71.3975 40.3842 71.7541 40.1086C71.8626 40.0175 71.9919 39.9249 72.142 39.8309C72.2913 39.7265 72.4335 39.6695 72.5686 39.6601C72.8284 39.6419 73.1033 39.6906 73.3933 39.8061C73.6929 39.9104 73.9696 40.0581 74.2231 40.2492C74.4863 40.4292 74.7049 40.6437 74.8789 40.8926C75.0522 41.1311 75.1476 41.375 75.1651 41.6244C75.1716 41.7179 75.1563 41.7973 75.1191 41.8626C75.0811 41.9174 75.0328 41.973 74.9741 42.0293C74.5899 42.359 74.255 42.7218 73.9694 43.1177C73.6839 43.5136 73.4508 43.9893 73.2704 44.5449C73.09 45.1005 72.9535 45.7627 72.8611 46.5314C72.7687 47.3002 72.7235 48.2222 72.7256 49.2976C72.7372 49.4639 72.7719 49.5868 72.8297 49.6663C72.8971 49.7346 73.0088 49.7634 73.1647 49.7525C73.5699 49.7241 73.973 49.6646 74.3739 49.5739C74.7852 49.4825 75.1757 49.3926 75.5454 49.3041C75.9144 49.2052 76.263 49.1129 76.5912 49.0273C76.9193 48.9417 77.2133 48.8898 77.4731 48.8717C77.6601 48.8586 77.8032 48.9634 77.9023 49.1862C78.0111 49.3979 78.0768 49.6648 78.0993 49.987C78.1124 50.174 78.1102 50.3673 78.0929 50.5669C78.0755 50.7666 78.0359 50.9468 77.9741 51.1078C77.9226 51.268 77.8489 51.4089 77.753 51.5305C77.6564 51.6417 77.5308 51.7131 77.3764 51.7448L73.2608 52.4711C73.0448 52.5176 72.9158 52.6154 72.8741 52.7645C72.8427 52.9128 72.8361 53.1169 72.8542 53.3767C73.0148 55.6732 73.21 57.6435 73.4399 59.2878C73.6697 60.932 73.8914 62.3105 74.105 63.4233C74.3296 64.5458 74.5217 65.4252 74.681 66.0614C74.8411 66.7081 74.9313 67.1769 74.9517 67.4679C74.9669 67.6861 74.8924 67.8897 74.7281 68.0787C74.5742 68.267 74.3665 68.4329 74.1051 68.5765C73.854 68.7193 73.5748 68.8329 73.2674 68.917C72.9607 69.0115 72.6723 69.0683 72.4022 69.0871C72.1424 69.1053 71.9053 69.0749 71.6909 68.9959C71.4877 68.9266 71.3632 68.7891 71.3175 68.5835C71.1627 67.8633 71.0184 67.0694 70.8847 66.2016C70.7516 65.3442 70.6221 64.3874 70.496 63.3311C70.381 62.2845 70.2696 61.1384 70.1616 59.8929C70.0529 58.637 69.9462 57.2609 69.8416 55.7646C69.8147 55.3801 69.7885 55.006 69.7631 54.6423C69.7377 54.2786 69.7226 53.9142 69.718 53.549C69.6962 53.2373 69.5138 53.0934 69.1709 53.1174L66.474 53.5253ZM78.0289 56.1475C78.0165 55.9708 78.0235 55.772 78.0498 55.5508C78.0761 55.3297 78.0802 55.0893 78.062 54.8295C78.0496 54.6528 77.9623 54.5232 77.7999 54.4406C77.6478 54.3572 77.4743 54.2649 77.2793 54.1637C77.0842 54.0625 76.9026 53.929 76.7344 53.7632C76.5766 53.5968 76.486 53.3473 76.4628 53.0147C76.4461 52.7757 76.4917 52.5324 76.5997 52.2847C76.718 52.0362 76.895 51.8046 77.1306 51.5897C77.7117 51.0896 78.3169 50.6348 78.9461 50.2253C79.5857 49.8151 80.2241 49.4625 80.8613 49.1673C81.5089 48.8714 82.1502 48.6334 82.785 48.4532C83.4198 48.2731 84.0333 48.1623 84.6256 48.1209C85.6232 48.0511 86.5715 48.1728 87.4705 48.4858C88.3792 48.7878 89.1782 49.2383 89.8675 49.8376C90.5665 50.4256 91.1332 51.1378 91.5676 51.9742C92.0117 52.7994 92.2678 53.7004 92.3361 54.6771C92.403 55.6331 92.2639 56.5565 91.919 57.4474C91.5837 58.3271 91.1009 59.1127 90.4705 59.8041C89.8401 60.4956 89.0808 61.0604 88.1925 61.4984C87.3153 61.9461 86.3728 62.2052 85.3648 62.2757C84.3777 62.3447 83.4516 62.2424 82.5867 61.9687C81.7217 61.6951 80.9623 61.2887 80.3086 60.7497C79.6541 60.2003 79.1274 59.5375 78.7285 58.7613C78.3289 57.9748 78.0957 57.1035 78.0289 56.1475ZM85.5116 59.4461C85.948 59.4155 86.3938 59.2956 86.8491 59.0863C87.3044 58.8769 87.7126 58.5925 88.0738 58.2331C88.4447 57.8626 88.7378 57.4244 88.953 56.9186C89.1786 56.412 89.27 55.8522 89.2272 55.2391C89.1836 54.6157 89.0286 54.0417 88.7622 53.5174C88.4958 52.993 88.1461 52.5476 87.7133 52.181C87.2901 51.8034 86.7951 51.5195 86.2284 51.3294C85.672 51.1386 85.0769 51.0653 84.4431 51.1097C83.2896 51.1903 82.4274 51.5534 81.8565 52.199C81.2848 52.8342 81.0422 53.77 81.1287 55.0066C81.1759 55.682 81.3186 56.3038 81.5567 56.8719C81.8045 57.4289 82.1252 57.9077 82.5187 58.3083C82.9114 58.6985 83.3603 58.9961 83.8655 59.2009C84.3809 59.405 84.9296 59.4868 85.5116 59.4461ZM92.6895 42.4822C92.6517 41.9418 92.7807 41.5464 93.0764 41.296C93.3722 41.0456 93.8785 40.8954 94.5955 40.8452C94.8449 40.8278 95.065 40.8385 95.2556 40.8774C95.4463 40.9163 95.6084 40.9937 95.7418 41.1097C95.8745 41.2152 95.9844 41.3694 96.0717 41.5721C96.1686 41.7638 96.254 42.0136 96.3277 42.3217C96.5275 43.2371 96.7305 44.1992 96.9368 45.2081C97.1528 46.2059 97.3584 47.2044 97.5535 48.2037C97.7584 49.1918 97.9514 50.1599 98.1325 51.1079C98.313 52.0455 98.4734 52.9218 98.614 53.7369C98.7642 54.5409 98.8822 55.2584 98.9681 55.8893C99.0637 56.5092 99.1242 57.001 99.1496 57.3647C99.1757 57.7387 99.1615 58.0582 99.107 58.3231C99.0628 58.5872 98.963 58.803 98.8077 58.9705C98.6627 59.1373 98.4628 59.2662 98.2082 59.3571C97.9631 59.4368 97.6536 59.4898 97.2795 59.516C96.9158 59.5414 96.6183 59.4682 96.387 59.2964C96.1661 59.1239 96.0422 58.8454 96.0153 58.461C95.9877 58.0661 95.9198 57.5435 95.8117 56.8932C95.7028 56.2325 95.5681 55.5006 95.4075 54.6973C95.2469 53.8941 95.0671 53.0399 94.8681 52.135C94.6795 51.2292 94.4812 50.3346 94.2732 49.4512C94.0756 48.567 93.8806 47.7191 93.6881 46.9077C93.5053 46.0851 93.3397 45.3605 93.1915 44.7339C93.0425 44.0969 92.9227 43.5779 92.832 43.177C92.7406 42.7657 92.6931 42.5341 92.6895 42.4822ZM103.044 43.622C102.743 43.6431 102.454 43.6215 102.178 43.5573C101.912 43.4819 101.675 43.3732 101.466 43.2311C101.268 43.0779 101.103 42.8962 100.974 42.686C100.844 42.4758 100.77 42.2408 100.752 41.981C100.722 41.5446 100.868 41.1793 101.193 40.8851C101.527 40.5903 101.985 40.4225 102.567 40.3818C102.837 40.3629 103.101 40.3967 103.357 40.4831C103.613 40.5592 103.84 40.6739 104.039 40.827C104.248 40.9795 104.418 41.166 104.548 41.3866C104.678 41.5969 104.751 41.8215 104.768 42.0605C104.799 42.5073 104.657 42.8722 104.343 43.1553C104.038 43.4272 103.605 43.5828 103.044 43.622ZM101.241 48.5253C101.216 48.1617 101.351 47.8546 101.647 47.6042C101.952 47.3427 102.365 47.1937 102.884 47.1574C103.819 47.092 104.341 47.3793 104.448 48.0192C104.521 48.4631 104.598 48.9642 104.679 49.5224C104.77 50.0799 104.858 50.6741 104.944 51.3051C105.04 51.9249 105.127 52.5715 105.205 53.2447C105.293 53.9068 105.376 54.5642 105.453 55.2166C105.529 55.8587 105.598 56.4804 105.661 57.0816C105.724 57.6828 105.773 58.2329 105.808 58.7316C105.844 59.2512 105.685 59.654 105.329 59.9399C104.983 60.2251 104.457 60.3924 103.75 60.4418C103.428 60.4644 103.168 60.4042 102.97 60.2614C102.784 60.1283 102.68 59.9163 102.66 59.6253C102.559 58.1913 102.429 56.8534 102.269 55.6115C102.119 54.3585 101.968 53.2466 101.817 52.2756C101.676 51.3039 101.546 50.4985 101.428 49.8593C101.32 49.209 101.258 48.7643 101.241 48.5253ZM108.579 54.0112C108.567 53.8346 108.574 53.6357 108.6 53.4145C108.626 53.1934 108.631 52.953 108.612 52.6932C108.6 52.5165 108.513 52.3869 108.35 52.3043C108.198 52.2209 108.025 52.1286 107.83 52.0274C107.635 51.9262 107.453 51.7927 107.285 51.6269C107.127 51.4605 107.036 51.211 107.013 50.8784C106.996 50.6394 107.042 50.3961 107.15 50.1484C107.268 49.8999 107.445 49.6683 107.681 49.4534C108.262 48.9533 108.867 48.4985 109.497 48.089C110.136 47.6788 110.775 47.3262 111.412 47.031C112.059 46.7351 112.701 46.4971 113.335 46.3169C113.97 46.1368 114.584 46.026 115.176 45.9846C116.174 45.9149 117.122 46.0365 118.021 46.3496C118.93 46.6515 119.729 47.1021 120.418 47.7013C121.117 48.2894 121.684 49.0016 122.118 49.8379C122.562 50.6631 122.818 51.5641 122.887 52.5408C122.953 53.4968 122.814 54.4203 122.469 55.3111C122.134 56.1908 121.651 56.9764 121.021 57.6679C120.391 58.3593 119.631 58.9241 118.743 59.3621C117.866 59.8098 116.923 60.0689 115.915 60.1394C114.928 60.2084 114.002 60.1061 113.137 59.8325C112.272 59.5588 111.513 59.1524 110.859 58.6134C110.204 58.064 109.678 57.4012 109.279 56.625C108.879 55.8385 108.646 54.9672 108.579 54.0112ZM116.062 57.3098C116.498 57.2793 116.944 57.1593 117.399 56.95C117.855 56.7406 118.263 56.4562 118.624 56.0968C118.995 55.7263 119.288 55.2881 119.503 54.7823C119.729 54.2757 119.82 53.7159 119.778 53.1028C119.734 52.4794 119.579 51.9054 119.313 51.3811C119.046 50.8567 118.697 50.4113 118.264 50.0447C117.84 49.6671 117.345 49.3832 116.779 49.1931C116.222 49.0023 115.627 48.9291 114.993 48.9734C113.84 49.054 112.978 49.4171 112.407 50.0627C111.835 50.6979 111.593 51.6338 111.679 52.8703C111.726 53.5458 111.869 54.1675 112.107 54.7356C112.355 55.2926 112.676 55.7714 113.069 56.172C113.462 56.5622 113.911 56.8598 114.416 57.0646C114.931 57.2688 115.48 57.3505 116.062 57.3098Z" fill="#CD71FE"/>
</svg>
