<svg width="41" height="42" viewBox="0 0 41 42" fill="none" xmlns="http://www.w3.org/2000/svg">
<path fill-rule="evenodd" clip-rule="evenodd" d="M20.5 0.806152C31.8221 0.806152 41 10.2 41 21.7901C41 31.0593 35.1329 38.9225 26.9923 41.6998C25.953 41.9065 25.584 41.2512 25.584 40.6925C25.584 40.0007 25.6086 37.7413 25.6086 34.9333C25.6086 32.9768 24.9526 31.6998 24.2166 31.0489C28.782 30.5291 33.579 28.7545 33.579 20.6949C33.579 18.4026 32.7836 16.5321 31.4675 15.0626C31.6807 14.5325 32.3838 12.3982 31.2666 9.50834C31.2666 9.50834 29.5487 8.94606 25.6352 11.6599C23.9973 11.1953 22.2425 10.9616 20.5 10.9534C18.7575 10.9616 17.0047 11.1953 15.3688 11.6599C11.4513 8.94606 9.72929 9.50834 9.72929 9.50834C8.61615 12.3982 9.31929 14.5325 9.53044 15.0626C8.2205 16.5321 7.41895 18.4026 7.41895 20.6949C7.41895 28.734 12.2057 30.5358 16.7587 31.0659C16.1724 31.5899 15.6415 32.5141 15.457 33.8711C14.2885 34.4073 11.3201 35.3353 9.49148 32.1282C9.49148 32.1282 8.40704 30.112 6.34884 29.9647C6.34884 29.9647 4.35009 29.9382 6.20944 31.2398C6.20944 31.2398 7.55219 31.8845 8.48494 34.3098C8.48494 34.3098 9.6883 38.055 15.3914 36.7861C15.4016 38.5401 15.4201 40.1931 15.4201 40.6925C15.4201 41.2471 15.0429 41.8962 14.0199 41.7018C5.87324 38.9286 0 31.0614 0 21.7901C0 10.2 9.17989 0.806152 20.5 0.806152Z" fill="#CD71FE"/>
</svg>
