<svg width="42" height="42" viewBox="0 0 42 42" fill="none" xmlns="http://www.w3.org/2000/svg">
<path fill-rule="evenodd" clip-rule="evenodd" d="M21 32C27.0751 32 32 27.0751 32 21C32 14.9249 27.0751 10 21 10C14.9249 10 10 14.9249 10 21C10 27.0751 14.9249 32 21 32ZM21 28.3333C25.05 28.3333 28.3333 25.05 28.3333 21C28.3333 16.9499 25.05 13.6667 21 13.6667C16.9499 13.6667 13.6667 16.9499 13.6667 21C13.6667 25.05 16.9499 28.3333 21 28.3333Z" fill="#CD71FE"/>
<path d="M31.9998 8.1665C30.9873 8.1665 30.1665 8.98732 30.1665 9.99984C30.1665 11.0124 30.9873 11.8332 31.9998 11.8332C33.0124 11.8332 33.8332 11.0124 33.8332 9.99984C33.8332 8.98732 33.0124 8.1665 31.9998 8.1665Z" fill="#CD71FE"/>
<path fill-rule="evenodd" clip-rule="evenodd" d="M2.03193 6.83912C0.833008 9.19215 0.833008 12.2724 0.833008 18.433V23.5663C0.833008 29.7269 0.833008 32.8073 2.03193 35.1602C3.08654 37.23 4.76932 38.9128 6.83912 39.9673C9.19215 41.1663 12.2724 41.1663 18.433 41.1663H23.5663C29.7269 41.1663 32.8073 41.1663 35.1602 39.9673C37.23 38.9128 38.9128 37.23 39.9673 35.1602C41.1663 32.8073 41.1663 29.7269 41.1663 23.5663V18.433C41.1663 12.2724 41.1663 9.19215 39.9673 6.83912C38.9128 4.76932 37.23 3.08654 35.1602 2.03193C32.8073 0.833008 29.7269 0.833008 23.5663 0.833008H18.433C12.2724 0.833008 9.19215 0.833008 6.83912 2.03193C4.76932 3.08654 3.08654 4.76932 2.03193 6.83912ZM23.5663 4.49967H18.433C15.2922 4.49967 13.1571 4.50253 11.5068 4.63736C9.89928 4.7687 9.07721 5.00676 8.50375 5.29895C7.12389 6.00204 6.00204 7.12389 5.29895 8.50375C5.00676 9.07721 4.7687 9.89928 4.63736 11.5068C4.50253 13.1571 4.49967 15.2922 4.49967 18.433V23.5663C4.49967 26.7072 4.50253 28.8421 4.63736 30.4925C4.7687 32.1001 5.00676 32.9222 5.29895 33.4957C6.00204 34.8754 7.12389 35.9973 8.50375 36.7003C9.07721 36.9926 9.89928 37.2307 11.5068 37.362C13.1571 37.4967 15.2922 37.4997 18.433 37.4997H23.5663C26.7072 37.4997 28.8421 37.4967 30.4925 37.362C32.1001 37.2307 32.9222 36.9926 33.4957 36.7003C34.8754 35.9973 35.9973 34.8754 36.7003 33.4957C36.9926 32.9222 37.2307 32.1001 37.362 30.4925C37.4967 28.8421 37.4997 26.7072 37.4997 23.5663V18.433C37.4997 15.2922 37.4967 13.1571 37.362 11.5068C37.2307 9.89928 36.9926 9.07721 36.7003 8.50375C35.9973 7.12389 34.8754 6.00204 33.4957 5.29895C32.9222 5.00676 32.1001 4.7687 30.4925 4.63736C28.8421 4.50253 26.7072 4.49967 23.5663 4.49967Z" fill="#CD71FE"/>
</svg>
