<svg width="40" height="40" viewBox="0 0 40 40" fill="none" xmlns="http://www.w3.org/2000/svg">
<path fill-rule="evenodd" clip-rule="evenodd" d="M40 40H32V26.002C32 22.162 30.306 20.0195 27.268 20.0195C23.962 20.0195 22 22.252 22 26.002V40H14V14H22V16.9238C22 16.9238 24.51 12.5195 30.166 12.5195C35.824 12.5195 40 15.9722 40 23.1162V40ZM4.884 9.8418C2.186 9.8418 0 7.63792 0 4.91992C0 2.20392 2.186 0 4.884 0C7.58 0 9.76599 2.20392 9.76599 4.91992C9.76799 7.63792 7.58 9.8418 4.884 9.8418ZM0 40H10V14H0V40Z" fill="#CD71FE"/>
</svg>
