<svg width="29" height="49" viewBox="0 0 29 49" fill="none" xmlns="http://www.w3.org/2000/svg">
<path d="M19.3518 46.4798C12.7957 46.8505 27.1712 24.5568 24.4079 12.4999C22.5732 4.49485 14.3436 2.57324 11.9079 2.00009C3.40795 -5.78501e-05 1.58569 7.54812 2.40798 14.5C4.13475 29.0988 25.908 46.1091 19.3518 46.4798Z" stroke="#CD71FE" stroke-width="3" stroke-linecap="round"/>
<path d="M11.0763 19.4715C11.0763 19.4715 15.2546 21.3975 16.4655 19.5416C17.5297 17.9106 17.2492 15.857 15.8669 14.4817C14.5485 13.17 12.3851 13.4782 11.6385 14.2742C10.6367 15.3423 10.5533 17.5609 11.4912 18.7147C12.2784 19.6831 14.2329 20.6777 15.6979 20.1603C17.9577 19.3623 19.5374 11.3939 13.251 13.6905" stroke="#CD71FE" stroke-width="3" stroke-linecap="round"/>
</svg>
