<svg width="33" height="42" viewBox="0 0 33 42" fill="none" xmlns="http://www.w3.org/2000/svg">
<path d="M7.08398 12.0918C7.30664 11.8691 7.53516 11.7578 7.76953 11.7578C8.01562 11.7578 8.23242 11.8457 8.41992 12.0215L9.4043 12.7422C9.66211 12.9648 9.79102 13.1934 9.79102 13.4277C9.79102 13.6387 9.68555 13.8496 9.47461 14.0605C9.11133 14.4355 8.71875 14.8457 8.29688 15.291C7.875 15.7363 7.45898 16.2051 7.04883 16.6973C6.63867 17.1895 6.25195 17.6875 5.88867 18.1914C5.52539 18.6953 5.2207 19.1934 4.97461 19.6855C4.86914 19.8379 4.81641 20.0078 4.81641 20.1953C4.81641 20.418 4.92773 20.6523 5.15039 20.8984C5.38477 21.1328 5.68359 21.373 6.04688 21.6191C6.41016 21.8652 6.82031 22.1113 7.27734 22.3574C7.74609 22.5918 8.21484 22.8145 8.68359 23.0254C9.15234 23.2363 9.60352 23.4297 10.0371 23.6055C10.4707 23.7695 10.8457 23.9043 11.1621 24.0098C11.5723 24.1621 11.7773 24.3906 11.7773 24.6953C11.7773 24.8125 11.7129 25.0059 11.584 25.2754C11.4668 25.5449 11.3086 25.8203 11.1094 26.1016C10.9219 26.3711 10.7168 26.6113 10.4941 26.8223C10.2715 27.0332 10.0605 27.1387 9.86133 27.1387C9.80273 27.1387 9.73828 27.1387 9.66797 27.1387C9.60938 27.127 9.54492 27.1035 9.47461 27.0684C8.8418 26.8457 8.20898 26.5938 7.57617 26.3125C6.95508 26.0312 6.33984 25.7324 5.73047 25.416C5.30859 25.1934 4.82227 24.9414 4.27148 24.6602C3.7207 24.3672 3.20508 24.0391 2.72461 23.6758C2.24414 23.3008 1.83398 22.8965 1.49414 22.4629C1.16602 22.0176 1.00195 21.5371 1.00195 21.0215C1.00195 20.6113 1.0957 20.1602 1.2832 19.668C1.48242 19.1758 1.74023 18.666 2.05664 18.1387C2.38477 17.6113 2.75391 17.0781 3.16406 16.5391C3.58594 16 4.01953 15.4668 4.46484 14.9395C4.92188 14.4121 5.37305 13.9082 5.81836 13.4277C6.27539 12.9473 6.69727 12.502 7.08398 12.0918ZM24.9961 26.8047C24.7852 27.0273 24.5566 27.1387 24.3105 27.1387C24.0879 27.1387 23.8711 27.0566 23.6602 26.8926L22.6934 26.1719C22.4355 25.9375 22.3066 25.709 22.3066 25.4863C22.3066 25.2637 22.4121 25.0469 22.623 24.8359C22.9863 24.4727 23.3789 24.0684 23.8008 23.623C24.2227 23.166 24.6387 22.6914 25.0488 22.1992C25.459 21.707 25.8457 21.209 26.209 20.7051C26.5723 20.2012 26.877 19.7031 27.123 19.2109C27.1816 19.1172 27.2168 19.0293 27.2285 18.9473C27.252 18.8652 27.2637 18.7891 27.2637 18.7188C27.2637 18.4961 27.1465 18.2617 26.9121 18.0156C26.6895 17.7695 26.3965 17.5234 26.0332 17.2773C25.6699 17.0312 25.2539 16.791 24.7852 16.5566C24.3281 16.3105 23.8652 16.0879 23.3965 15.8887C22.9277 15.6777 22.4766 15.4902 22.043 15.3262C21.6094 15.1504 21.2402 15.0098 20.9355 14.9043C20.5254 14.7402 20.3203 14.5117 20.3203 14.2188C20.3203 14.1016 20.3789 13.9082 20.4961 13.6387C20.625 13.3691 20.7832 13.0938 20.9707 12.8125C21.1582 12.5312 21.3633 12.2852 21.5859 12.0742C21.8203 11.8633 22.0371 11.7578 22.2363 11.7578C22.2949 11.7578 22.3535 11.7637 22.4121 11.7754C22.4824 11.7754 22.5527 11.793 22.623 11.8281C23.2559 12.0508 23.8828 12.3027 24.5039 12.584C25.125 12.8652 25.7461 13.1699 26.3672 13.498C26.7891 13.709 27.2695 13.9609 27.8086 14.2539C28.3594 14.5469 28.875 14.875 29.3555 15.2383C29.8359 15.6016 30.2402 16.0059 30.5684 16.4512C30.9082 16.8848 31.0781 17.3652 31.0781 17.8926C31.0781 18.5137 30.8672 19.2109 30.4453 19.9844C30.0352 20.7578 29.5195 21.5488 28.8984 22.3574C28.2891 23.166 27.6328 23.957 26.9297 24.7305C26.2266 25.5039 25.582 26.1953 24.9961 26.8047Z" fill="#CD71FE"/>
<path d="M16.7812 8.45312C16.8984 7.91406 17.2383 7.62695 17.8008 7.5918L19.4531 7.52148C19.793 7.54492 20.0215 7.63281 20.1387 7.78516C20.2559 7.9375 20.3145 8.18359 20.3145 8.52344C19.6934 12.168 19.0488 15.8066 18.3809 19.4395C17.7129 23.0605 16.9512 26.6816 16.0957 30.3027C16.0254 30.6074 15.9023 30.8066 15.7266 30.9004C15.5508 31.0059 15.3164 31.0586 15.0234 31.0586L13.4414 30.8828C13.1836 30.8594 12.9844 30.7773 12.8438 30.6367C12.7148 30.5078 12.6504 30.3262 12.6504 30.0918C12.6504 30.0566 12.6504 30.0098 12.6504 29.9512C12.6504 29.9043 12.6621 29.8516 12.6855 29.793C13.2129 27.3438 13.6758 25.1289 14.0742 23.1484C14.4844 21.1562 14.8477 19.3164 15.1641 17.6289C15.4922 15.9297 15.7852 14.3418 16.043 12.8652C16.3008 11.377 16.5469 9.90625 16.7812 8.45312Z" fill="#CD71FE"/>
</svg>
