<svg width="31" height="28" viewBox="0 0 31 28" fill="none" xmlns="http://www.w3.org/2000/svg">
<path d="M12.9238 16.4866L28.8634 2.39139M13.3769 17.1205L16.9912 23.5152C17.8647 25.0604 18.3013 25.8331 18.8515 26.0403C19.329 26.2201 19.8748 26.1875 20.3207 25.9527C20.8345 25.6821 21.15 24.8645 21.7812 23.2295L28.6102 5.53762C29.1602 4.11299 29.4351 3.40067 29.2469 2.92945C29.0831 2.51952 28.7187 2.19706 28.2553 2.05223C27.7226 1.88574 26.9174 2.12898 25.3068 2.61543L5.30734 8.65657C3.45906 9.21487 2.5349 9.49403 2.22898 9.94852C1.96348 10.3429 1.9267 10.8257 2.12995 11.248C2.36417 11.7347 3.23762 12.1211 4.9845 12.8937L12.2132 16.0911C12.5011 16.2184 12.645 16.282 12.7696 16.3671C12.8804 16.4426 12.9796 16.5303 13.0648 16.6282C13.1611 16.7385 13.233 16.8658 13.3769 17.1205Z" stroke="#F4F0ED" stroke-width="3" stroke-linecap="round" stroke-linejoin="round"/>
</svg>
