<svg width="39" height="48" viewBox="0 0 39 48" fill="none" xmlns="http://www.w3.org/2000/svg">
<path d="M14.0604 7.43641C14.0235 4.82255 14.4706 26.4588 12.0572 29.7343C9.88884 32.6772 4.4681 33.7587 3.51848 33.5692C0.832779 33.0333 10.5486 30.7262 12.5781 33.8876C14.566 36.9841 14.3497 42.4975 15.1746 45.5944C15.9626 48.5531 15.1173 36.646 17.3935 34.0109C19.571 31.4903 23.512 31.2082 26.6483 30.0863C27.9007 29.6382 19.5869 28.8372 16.3005 25.2965C13.6521 22.4431 14.0685 8.01426 14.0604 7.43641Z" stroke="#CD71FE" stroke-width="3" stroke-linecap="round"/>
<path d="M30.6683 8.47146C30.6683 8.47146 34.8466 10.3975 36.0575 8.54156C37.1217 6.91059 36.8413 4.857 35.459 3.48167C34.1406 2.16996 31.9772 2.47824 31.2306 3.27424C30.2288 4.3423 30.1454 6.56091 31.0832 7.71469C31.8704 8.68309 33.8249 9.67774 35.29 9.16034C37.5497 8.36229 39.1294 0.393851 32.843 2.69051" stroke="#CD71FE" stroke-width="3" stroke-linecap="round"/>
</svg>
